<mxfile host="app.diagrams.net" modified="2024-01-10T19:29:07.978Z" agent="Mozilla/5.0 (Macintosh; Intel Mac OS X 10_15_7) AppleWebKit/605.1.15 (KHTML, like Gecko) Version/17.0 Safari/605.1.15" version="22.1.18" etag="tfPu_dkm9GLBajCGbgec" type="github">
  <diagram name="Page-1" id="rvLVfNb9cilqzJjpR9mA">
    <mxGraphModel>
      <root>
        <mxCell id="0" />
        <mxCell id="1" parent="0" />
      </root>
    </mxGraphModel>
  </diagram>
</mxfile>
